<?xml version="1.0" encoding="UTF-8"?>
<!DOCTYPE svg PUBLIC "-//W3C//DTD SVG 1.1//EN" "http://www.w3.org/Graphics/SVG/1.1/DTD/svg11.dtd">
<svg xmlns="http://www.w3.org/2000/svg" version="1.1" width="1015px" height="113px" style="shape-rendering:geometricPrecision; text-rendering:geometricPrecision; image-rendering:optimizeQuality; fill-rule:evenodd; clip-rule:evenodd" xmlns:xlink="http://www.w3.org/1999/xlink">
<g><path style="opacity:1" fill="#6d63ff" d="M 1014.5,52.5 C 1014.5,72.5 1014.5,92.5 1014.5,112.5C 676.167,112.5 337.833,112.5 -0.5,112.5C -0.5,99.5 -0.5,86.5 -0.5,73.5C 26.4679,62.0186 53.4679,50.5186 80.5,39C 94.348,33.662 108.348,28.8287 122.5,24.5C 126.162,24.2766 129.495,23.2766 132.5,21.5C 193.996,0.929744 256.329,-1.57026 319.5,14C 366.109,27.2029 412.776,40.2029 459.5,53C 497.775,61.5061 536.441,63.8394 575.5,60C 594.592,57.9869 613.592,55.3202 632.5,52C 671.335,44.3609 710.335,37.6942 749.5,32C 814.842,25.8503 879.842,28.5169 944.5,40C 967.936,43.8499 991.269,48.0165 1014.5,52.5 Z"/></g>
<g><path style="opacity:0.957" fill="#a599ff" d="M 132.5,21.5 C 129.495,23.2766 126.162,24.2766 122.5,24.5C 125.505,22.7234 128.838,21.7234 132.5,21.5 Z"/></g>
</svg>
